<svg width="764" xmlns="http://www.w3.org/2000/svg" height="544.891" fill="none"><g data-testid="line1" style="fill: rgb(0, 0, 0);"><g data-testid="Group"><path d="M341.08 456.941c-2.483.252-4.963.516-7.445.768-32.914 2.742-65.826 5.765-98.755 9.185-20.682 2.143-35.081 3.717-46.922 5.106-53.584 5.235-106.983 11.827-159.938 20.221-.973.156-1.46.386-1.52.423-1.378.767-1.45 1.995-1.446 2.59.006.839.246 1.937 1.559 2.619.157.075.507.259 1.096.282.241.013 3.155-.326 8.663-1.003-.267.663-.255 1.293-.121 1.859.134.554.687 2.165 2.743 2.256 1.665.073 13.089-2.162 17.535-2.808 15.432-2.234 30.834-4.712 46.282-6.83 24.167-3.322 48.361-6.423 72.561-9.466 16.497-2.091 32.997-4.146 49.506-6.167a5595.131 5595.131 0 0 1 62.271-6.38c59.738-4.155 119.535-6.971 179.019-9.062 70.888-2.484 142.105-5.983 212.882.122l-3.501.282-1.249.097c-30.762-1.764-67.525 2.056-93.493 2.826-111.817 3.335-221.653 11.662-332.608 25.691-43.549 5.518-87.014 12.513-130.238 20.268-14.949 2.693-53.788 9.174-59.028 11.217-1.79.691-2.225 2.05-2.312 2.52a3.059 3.059 0 0 0 .303 2.028c.218.423.58.91 1.265 1.267.26.141.73.321 1.456.396.664.067 1.84.077 3.602.006 141.982-6.362 282.725-30.006 424.181-43.426 52.204-4.958 104.414-9.765 156.637-14.502 10.224-.927 20.468-1.679 30.708-2.49 2.165.134 4.288.293 6.379.488l-23.509 2.281c-46.854 4.543-93.534 10.187-140.24 16.206-108.171 13.928-215.589 34.17-323.916 46.519-1.494.177-2.571 1.608-2.403 3.211.167 1.603 1.517 2.761 3.01 2.584 108.352-12.35 215.798-32.605 323.989-46.534 46.654-6.005 93.279-11.646 140.079-16.187 16.642-1.607 39.945-3.868 44.387-4.315.533-.057.837-.092.891-.106 1.277-.204 1.702-1.037 1.764-1.133.629-.9.647-1.799.406-2.617-.151-.508-.531-1.565-1.933-1.952-.375-.101-.75-.202-1.135-.292 4.092-.235 7.507-.467 8.444-.738 1.984-.582 2.232-2.248 2.252-2.855a3 3 0 0 0-.636-1.98 2.977 2.977 0 0 0-1.15-.91c-.3-.128-.973-.334-2.147-.485-37.733-4.806-75.622-6.457-113.558-6.578l23.494-.753c.327-.013.478-.031.511-.032 1.377-.184 1.82-1.112 1.923-1.279a2.92 2.92 0 0 0 .339-2.393c-.013-.058-.381-1.594-1.86-2.024l15.224-.826c3.092-.16 4.625-.269 4.896-.303 1.334-.194 1.779-1.052 1.871-1.196.608-.887.637-1.787.362-2.65-.113-.357-.503-1.648-2.161-1.93-.088-.02-.515-.061-1.256-.043-6.767.146-55.564 2.225-74.331 3.101-30.142 1.406-60.294 2.824-90.418 4.696a2946.773 2946.773 0 0 0-65.623 4.813c-61.688.909-123.358.71-184.386-1.777-1.503-.068-2.763 1.196-2.813 2.796-.048 1.611 1.132 2.963 2.636 3.031 38.771 1.568 77.802 2.24 116.925 2.267Zm232.598 12.97c-109.128 3.471-216.433 11.719-324.81 25.434-43.462 5.491-86.839 12.483-129.977 20.223-5.556 1.006-14.47 2.521-23.685 4.13 130.98-8.145 261.041-29.28 391.715-41.681 28.91-2.745 57.833-5.443 86.757-8.106ZM745.12 12.319c-144.913-7.33-292.276-3.276-437.554-4.596-96.065-.882-192.137-3.009-288.133-3.721-2.878-.019-5.245 1.234-5.285 2.81-.038 1.576 2.266 2.867 5.143 2.886 95.985.712 192.046 2.839 288.101 3.722 145.017 1.32 292.103-2.744 436.755 4.576 2.868.142 5.405-1.006 5.683-2.573.261-1.566-1.859-2.953-4.71-3.104ZM752.08 12.228c-13.653 83.417-6.101 168.244-8.559 251.871-1.645 55.298-5.607 110.6-6.933 165.859-.035 1.656 2.299 3.019 5.235 3.042 2.935.022 5.341-1.305 5.376-2.96 1.326-55.253 5.288-110.549 6.933-165.841 2.458-83.477-5.111-168.144 8.524-251.411.265-1.651-1.875-3.111-4.793-3.271-2.918-.15-5.5 1.07-5.783 2.711Z" fill-rule="evenodd" clip-rule="evenodd" style="fill: rgb(255, 255, 255); fill-opacity: 1;" class="fills" data-testid="svg-path"/><path d="M14.702 6.678C1.745 88.655 8.912 172.018 6.579 254.2 5.018 308.544 1.259 362.891 0 417.195c-.034 1.629 2.182 2.968 4.968 2.99 2.786.022 5.068-1.282 5.102-2.909 1.259-54.298 5.018-108.64 6.579-162.977 2.333-82.036-4.851-165.241 8.089-247.07.252-1.622-1.779-3.058-4.548-3.215-2.769-.147-5.22 1.052-5.488 2.664Z" fill-rule="evenodd" clip-rule="evenodd" style="fill: rgb(255, 255, 255); fill-opacity: 1;" class="fills" data-testid="svg-path"/></g></g></svg>