<svg width="764" xmlns="http://www.w3.org/2000/svg" height="458.118" fill="none"><g data-testid="line1" style="fill: rgb(0, 0, 0);"><g data-testid="Group"><path d="M321.372 421.842c-32.894 1.317-65.403 2.936-97.103 4.706-44.877 2.504-89.735 5.094-134.324 9.195-14.035 1.295-28.288 2.115-42.236 3.734-8.755 1.014-20.365 2.46-21.888 2.763-.797.172-1.145.432-1.257.518-.79.604-.646 1.187-.2 1.64.179.194.631.669 1.888.734 84.051 4.425 169.998-4.209 254.151-5.115 145.936-1.554 296.296 4.619 441.074 18.087 1.263.108 2.492-.431 2.668-1.23.21-.777-.702-1.533-1.966-1.64-145.023-13.491-295.629-19.686-441.846-18.11-78.427.842-158.402 8.418-236.938 5.828 1.804-.216 3.574-.432 5.188-.626 13.892-1.619 28.085-2.417 42.065-3.712 44.493-4.102 89.26-6.692 134.077-9.174 55.608-3.108 113.638-5.785 172.125-7.036 20.923.194 41.776.388 62.629.626 45.112.518 90.434 2.029 135.44 4.057 13.551.626 27.102 1.274 40.653 1.835 4.494.194 16.079.755 17.694.712 2.001-.043 2.387-1.079 2.422-1.251.105-.389.035-.929-.948-1.382-.106-.065-.737-.281-2.142-.41-81.832-7.641-169.211-8.914-255.677-7.08-91.206-.798-182.763-1.144-273.737-1.511-1.302 0-2.366.648-2.377 1.446-.007.799 1.043 1.447 2.345 1.468 65.873.259 132.08.518 198.22.928ZM745.12 12.319c-144.913-7.33-292.276-3.276-437.554-4.596-96.065-.882-192.137-3.009-288.133-3.721-2.878-.019-5.245 1.234-5.285 2.81-.038 1.576 2.266 2.867 5.143 2.886 95.985.712 192.046 2.839 288.101 3.722 145.017 1.32 292.103-2.744 436.755 4.576 2.868.142 5.405-1.006 5.683-2.573.261-1.566-1.859-2.953-4.71-3.104ZM752.08 12.228c-13.653 83.417-6.101 168.244-8.559 251.871-1.645 55.298-5.607 110.6-6.933 165.859-.035 1.656 2.299 3.019 5.235 3.042 2.935.022 5.341-1.305 5.376-2.96 1.326-55.253 5.288-110.549 6.933-165.841 2.458-83.477-5.111-168.144 8.524-251.411.265-1.651-1.875-3.111-4.793-3.271-2.918-.15-5.5 1.07-5.783 2.711Z" fill-rule="evenodd" clip-rule="evenodd" style="fill: rgb(255, 255, 255); fill-opacity: 1;" class="fills" data-testid="svg-path"/><path d="M14.702 6.678C1.745 88.655 8.912 172.018 6.579 254.2 5.018 308.544 1.259 362.891 0 417.195c-.034 1.629 2.182 2.968 4.968 2.99 2.786.022 5.068-1.282 5.102-2.909 1.259-54.298 5.018-108.64 6.579-162.977 2.333-82.036-4.851-165.241 8.089-247.07.252-1.622-1.779-3.058-4.548-3.215-2.769-.147-5.22 1.052-5.488 2.664Z" fill-rule="evenodd" clip-rule="evenodd" style="fill: rgb(255, 255, 255); fill-opacity: 1;" class="fills" data-testid="svg-path"/></g></g></svg>