<svg width="764" xmlns="http://www.w3.org/2000/svg" height="456" fill="none"><g data-testid="line1" style="fill: rgb(0, 0, 0);"><g data-testid="Group"><path d="M745.12 12.319c-144.913-7.33-292.276-3.276-437.554-4.596-96.065-.882-192.137-3.009-288.133-3.721-2.878-.019-5.245 1.234-5.285 2.81-.038 1.576 2.266 2.867 5.143 2.886 95.985.712 192.046 2.839 288.101 3.722 145.017 1.32 292.103-2.744 436.755 4.576 2.868.142 5.405-1.006 5.683-2.573.261-1.566-1.859-2.953-4.71-3.104ZM752.08 12.228c-13.653 83.417-6.101 168.244-8.559 251.871-1.645 55.298-5.607 110.6-6.933 165.859-.035 1.656 2.299 3.019 5.235 3.042 2.935.022 5.341-1.305 5.376-2.96 1.326-55.253 5.288-110.549 6.933-165.841 2.458-83.477-5.111-168.144 8.524-251.411.265-1.651-1.875-3.111-4.793-3.271-2.918-.15-5.5 1.07-5.783 2.711Z" fill-rule="evenodd" clip-rule="evenodd" style="fill: rgb(255, 255, 255); fill-opacity: 1;" class="fills" data-testid="svg-path"/><path d="M14.702 6.678C1.745 88.655 8.912 172.018 6.579 254.2 5.018 308.544 1.259 362.891 0 417.195c-.034 1.629 2.182 2.968 4.968 2.99 2.786.022 5.068-1.282 5.102-2.909 1.259-54.298 5.018-108.64 6.579-162.977 2.333-82.036-4.851-165.241 8.089-247.07.252-1.622-1.779-3.058-4.548-3.215-2.769-.147-5.22 1.052-5.488 2.664ZM153.573 432.977c-7.588 1.553-14.71 3.802-21.133 6.955-.7.347-.912.834-.975 1.043-.106.371-.064.718.106 1.043.106.209.276.464.636.626.254.116.911.208 1.78.185 1.484-.022 3.774-.208 4.876-.208 3.773.046 7.546.023 11.319.093 12.019.232 14.117.417 29.569.278 18.039-.163 36.12-.441 54.179-.858-57.4 3.478-114.717 7.534-171.736 11.312-.636.047-1.124.65-1.081 1.346.021.718.593 1.252 1.229 1.205 133.052-8.809 267.568-19.195 401.638-19.867 6.613.162 13.205.324 19.776.487 39.702 1.019 79.424 2.248 119.084 4.149 12.908.626 25.818 1.321 38.747 1.971l11.489.556c3.095.139 11.065.65 12.188.673 1.018.022 1.272-.974 1.294-1.02.063-.325.02-.696-.234-1.044-.063-.092-.233-.347-.615-.464-.063 0-.36-.046-.975-.115-31.88-2.851-63.844-4.822-95.873-6.074 4.303.046 8.606.069 12.909.116 33.173.278 66.43 1.275 99.582 0 7.546-.278 15.114-.603 22.639-.997 5.066-.255 18.102.07 19.946-.533.847-.256 1.038-.904 1.059-1.228.022-.372-.041-.789-.424-1.16-.169-.186-.698-.486-1.695-.718-32.537-7.72-70.607-5.541-103.737-7.697-89.981-5.911-179.644-1.971-269.602 1.623-77.644 3.106-155.289 3.268-232.89 7.488-28.404 1.53-57.697-.232-85.698 5.61-.636.139-1.039.787-.933 1.483.127.696.742 1.16 1.378 1.02 27.873-5.818 57.062-4.034 85.359-5.563a2450.59 2450.59 0 0 1 36.819-1.716Zm240.054 1.716c-47.544-.812-95.089-1.229-142.675-.974-32.643.162-80.21-6.63-112.641 6.352h.594c3.773.046 7.546 0 11.319.093 11.998.232 14.096.417 29.506.277 39.405-.37 78.916-1.297 118.299-2.735 31.902-1.159 63.761-2.202 95.598-3.013Zm321.619-2.991c-30.756-5.888-65.625-4.126-96.255-6.12-89.896-5.912-179.495-1.97-269.368 1.622-40.169 1.624-80.315 2.435-120.441 3.432 7.695.325 15.05.556 21.77.533 68.02-.371 136.019.626 204.04 2.202 42.245-.695 84.491-.951 126.799-.579 33.152.302 66.346 1.275 99.498.023a1471.49 1471.49 0 0 0 22.596-.997c2.564-.116 7.207-.093 11.361-.116Z" fill-rule="evenodd" clip-rule="evenodd" style="fill: rgb(255, 255, 255); fill-opacity: 1;" class="fills" data-testid="svg-path"/></g></g></svg>