<svg width="764" xmlns="http://www.w3.org/2000/svg" height="524.709" fill="none"><g data-testid="line1" style="fill: rgb(0, 0, 0);"><g data-testid="Group"><path d="M745.12 12.319c-144.913-7.33-292.276-3.276-437.554-4.596-96.065-.882-192.137-3.009-288.133-3.721-2.878-.019-5.245 1.234-5.285 2.81-.038 1.576 2.266 2.867 5.143 2.886 95.985.712 192.046 2.839 288.101 3.722 145.017 1.32 292.103-2.744 436.755 4.576 2.868.142 5.405-1.006 5.683-2.573.261-1.566-1.859-2.953-4.71-3.104ZM428.091 470.766c-86.499-1.668-173.198.981-259.641 8.191-41.098 3.429-88.597 1.099-128.89 16.396-2.008.771-1.722 3.31-1.689 3.565.067.52.365 2.253 1.937 2.394.171.018 1.386-.179 1.852-.246 11.798-1.742 23.566-3.846 35.368-5.467 40.749-5.622 81.554-9.507 122.397-12.728 54.209-4.28 108.776-5.633 163-6.275 29.68-.349 59.952 2.636 89.78.775a2689 2689 0 0 1 32.747 1.135c45.621 1.877 91.111 5.954 136.543 10.932 14.608 1.6 25.738 3.158 40.049 4.458 5.435.498 14.065 1.014 20.07 1.364.881.056 3.131.161 4.064.207.093.027.187.03.29.034.36.013.532-.017.567-.016 2.052-.347 1.962-3.06 1.926-3.471-.006-.085-.232-2.381-1.984-2.529-.418-.039-3.422-.171-4.578-.237-5.97-.348-14.566-.864-19.974-1.348-14.285-1.299-25.408-2.858-39.991-4.456-45.501-4.981-91.058-9.072-136.747-10.952-5.582-.225-11.171-.439-16.753-.629-.164-.693-.555-1.478-1.467-1.848-.854-.344-7.033-.844-9.412-1.207-17.604-2.684-17.086-2.569-36.475-4.943-29.366-3.603-33.831-4.343-64.431-6.52-55.584-3.96-111.269-5.815-166.938-7.634-27.484-.885-57.002.662-84.726-5.217 9.249-1.184 18.518-1.957 27.775-2.887 31.608-3.17 63.182-4.703 94.831-5.438 75.917-1.762 151.856-.812 227.364 8.059-16.128-.366-32.258-.443-48.39-.701-65.667-1.024-131.883-4.428-197.617.195-1.177.09-2.112 1.501-2.086 3.152.026 1.663 1.017 2.939 2.195 2.862 65.648-4.626 131.769-1.213 197.351-.192 24.365.386 48.735.376 73.072 1.52 8.353.398 16.692 1.133 25.042 1.579 1.651.096 5.889.707 6.505.536 1.358-.372 1.7-1.757 1.81-2.439.057-.408.28-2.76-1.744-3.677-13.815-6.256-39.704-6.927-53.292-8.55-76.431-9.145-153.312-10.14-230.172-8.365-31.727.745-63.379 2.287-95.073 5.466-11.072 1.105-22.162 2.005-33.209 3.605-1.784.261-5.782.586-7.726 1.01-.812.175-1.404.443-1.669.638-1.03.758-1.252 1.906-1.28 2.688-.03.601.073 2.724 2.15 3.378 31.64 9.947 66.538 7.752 98.679 8.793 55.636 1.817 111.278 3.671 166.827 7.629 30.524 2.175 34.972 2.902 64.278 6.503 2.894.345 5.342.65 7.485.908ZM752.08 12.228c-13.653 83.417-6.101 168.244-8.559 251.871-1.645 55.298-5.607 110.6-6.933 165.859-.035 1.656 2.299 3.019 5.235 3.042 2.935.022 5.341-1.305 5.376-2.96 1.326-55.253 5.288-110.549 6.933-165.841 2.458-83.477-5.111-168.144 8.524-251.411.265-1.651-1.875-3.111-4.793-3.271-2.918-.15-5.5 1.07-5.783 2.711Z" fill-rule="evenodd" clip-rule="evenodd" style="fill: rgb(255, 255, 255); fill-opacity: 1;" class="fills" data-testid="svg-path"/><path d="M14.702 6.678C1.745 88.655 8.912 172.018 6.579 254.2 5.018 308.544 1.259 362.891 0 417.195c-.034 1.629 2.182 2.968 4.968 2.99 2.786.022 5.068-1.282 5.102-2.909 1.259-54.298 5.018-108.64 6.579-162.977 2.333-82.036-4.851-165.241 8.089-247.07.252-1.622-1.779-3.058-4.548-3.215-2.769-.147-5.22 1.052-5.488 2.664Z" fill-rule="evenodd" clip-rule="evenodd" style="fill: rgb(255, 255, 255); fill-opacity: 1;" class="fills" data-testid="svg-path"/></g></g></svg>